# xmcd CD database file
#
# Track frame offsets:
#	182
#	13562
#	45975
#	64575
#	111535
#	134475
#	163000
#	195162
#	225300
#	245175
#	260850
#	279300
#	303000
#
# Disc length: 4293 seconds
#
# Revision: 0
# Processed by: cddbd v1.5.1PL0 Copyright (c) Steve Scherf et al.
# Submitted via: CDex 1.51
#
DISCID=ac10c30d
DTITLE=V 52 Gerry Mulligan - Apple Core
DYEAR=1991
DGENRE=Jazz
TTITLE0=Utter Chaos
TTITLE1=Theme From "I Want Live"
TTITLE2=Black Nightgown
TTITLE3=Go Home
TTITLE4=Sett and Slow
TTITLE5=My Funny Valentine
TTITLE6=I'm Gonna Go Fishin'
TTITLE7=Bernie's Tune
TTITLE8=Westwood Walk
TTITLE9=La Plus Que Lente
TTITLE10=Makin' Whoopee
TTITLE11=18 Carrots for Rabbit
TTITLE12=Apple Core
EXTD=YEAR: 1991
EXTT0=
EXTT1=
EXTT2=
EXTT3=
EXTT4=
EXTT5=
EXTT6=
EXTT7=
EXTT8=
EXTT9=
EXTT10=
EXTT11=
EXTT12=
PLAYORDER=
